PathFileType  4	(X/Y/Z) C:\Users\antoi\Documents\MyRepositories\mobilecap\ResultsAnalysis
DataRate	CameraRate	NumFrames	NumMarkers	Units	OrigDataRate	OrigDataStartFrame	OrigNumFrames
100.0	100.0	4	51	mm	100.0	1	216
Frame#	Time	r_knee			r_shank_antsup			r_ankle			r_calc			r_5meta			r_toe			L_knee			L_shank_antsup			L_ankle			L_calc			L_5meta			L_toe			r_sh2			r_sh3			r_sh4			L_sh2			L_sh3			r_thigh1			r_thigh2			r_thigh3			r_thigh4			r_thigh5			L_thigh1			L_thigh2			L_thigh3			L_thigh4			r.ASIS			r.PSIS			L.ASIS			L.PSIS			C7			R_Shoulder			L_Shoulder			R_Sternum			L_Sternum			R_humerus			R_elbow_med			R_elbow_lat			R_forearm			R_wrist_radius			R_wrist_ulna			L_humerus			L_elbow_med			L_elbow_lat			L_forearm			L_wrist_radius			L_wrist_ulna			R_HJC			L_HJC			R_HJC_reg			L_HJC_reg			
		X1	Y1	Z1	X2	Y2	Z2	X3	Y3	Z3	X4	Y4	Z4	X5	Y5	Z5	X6	Y6	Z6	X7	Y7	Z7	X8	Y8	Z8	X9	Y9	Z9	X10	Y10	Z10	X11	Y11	Z11	X12	Y12	Z12	X13	Y13	Z13	X14	Y14	Z14	X15	Y15	Z15	X16	Y16	Z16	X17	Y17	Z17	X18	Y18	Z18	X19	Y19	Z19	X20	Y20	Z20	X21	Y21	Z21	X22	Y22	Z22	X23	Y23	Z23	X24	Y24	Z24	X25	Y25	Z25	X26	Y26	Z26	X27	Y27	Z27	X28	Y28	Z28	X29	Y29	Z29	X30	Y30	Z30	X31	Y31	Z31	X32	Y32	Z32	X33	Y33	Z33	X34	Y34	Z34	X35	Y35	Z35	X36	Y36	Z36	X37	Y37	Z37	X38	Y38	Z38	X39	Y39	Z39	X40	Y40	Z40	X41	Y41	Z41	X42	Y42	Z42	X43	Y43	Z43	X44	Y44	Z44	X45	Y45	Z45	X46	Y46	Z46	X47	Y47	Z47	X48	Y48	Z48	X49	Y49	Z49	X50	Y50	Z50	X51	Y51	Z51	

1	0.00000000	-1112.60877	770.80291	-459.39740	-1109.93158	697.12218	-435.01623	-1184.69386	399.76142	-464.03973	-1253.99501	360.73723	-499.84110	-1082.79733	358.26667	-437.85984	-1041.09792	381.49492	-493.67738	-1132.93293	769.26634	-731.55714	-1110.56957	701.92539	-731.39025	-1176.34599	400.18776	-719.74529	-1246.44654	362.88413	-673.76951	-1082.65508	354.14288	-741.97398	-1035.69999	380.54465	-686.49393	-1130.23293	587.05655	-429.25058	-1183.39149	708.72437	-443.32391	-1211.55875	595.73513	-439.82676	-1194.83036	718.10610	-759.90204	-1202.23667	595.01807	-760.51024	-1039.60119	1080.73388	-464.80652	-1033.25949	968.06204	-460.97226	-1079.16164	944.06938	-416.63373	-1131.98784	1079.19192	-399.09303	-1133.48637	962.48112	-411.41103	-1051.42277	1048.08140	-758.49172	-1056.68300	909.83608	-743.24895	-1164.90361	1049.59525	-783.74858	-1163.23583	909.07731	-762.46627	-1052.35440	1228.78362	-472.08260	-1235.00584	1248.10799	-546.58371	-1044.77194	1218.44017	-726.49261	-1235.36997	1240.62043	-655.41040	-1155.08368	1712.73223	-610.59180	-1106.21573	1655.12589	-453.36820	-1080.93075	1655.65346	-772.27146	-1043.84404	1621.83468	-585.56341	-1041.50275	1621.18967	-629.00442	-1106.40215	1412.11601	-379.92775	-1161.84272	1310.70162	-430.46709	-1134.08681	1327.45177	-364.16414	-1065.28650	1223.97940	-362.90574	-1022.48153	1112.20809	-374.21937	-1060.05950	1098.30974	-357.43623	-1045.61397	1520.33778	-812.13347	-1119.58840	1311.26301	-778.27280	-1097.85271	1318.31273	-836.49802	-1035.95388	1225.39730	-844.24867	-1010.23792	1101.90636	-825.80759	-1041.09167	1090.32396	-844.79086	-1119.31688	1153.94003	-496.65596	-1112.19765	1148.57861	-696.74994	-1114.31464	1150.82137	-502.48100	-1114.87583	1139.28136	-670.20737	
2	0.01000000	-1112.24228	770.58580	-459.12622	-1109.32885	696.77539	-435.36672	-1184.82147	399.68163	-463.93145	-1254.05383	360.64239	-499.81195	-1082.93478	358.53002	-438.02297	-1041.21662	381.83657	-493.79778	-1131.03146	768.95730	-731.04157	-1108.58686	701.62994	-731.21080	-1176.33273	400.24234	-719.75808	-1246.55801	362.82863	-673.67717	-1082.62993	354.32496	-741.96685	-1035.87965	380.80644	-686.51558	-1129.77572	587.09447	-429.19484	-1182.87643	708.57475	-443.18329	-1210.97245	596.01070	-439.26900	-1192.77325	718.34577	-759.98579	-1200.52670	594.99356	-760.56625	-1038.56578	1080.41832	-465.54747	-1032.79322	967.82097	-461.09330	-1078.05727	943.87373	-417.25609	-1130.81234	1078.99257	-399.28591	-1132.51576	962.28790	-411.63422	-1050.90507	1048.48643	-756.40404	-1055.33484	910.05960	-742.84029	-1164.26757	1048.01637	-782.02300	-1161.98446	908.83424	-762.66239	-1051.24345	1228.30110	-472.34777	-1234.02499	1248.68805	-546.22925	-1044.63399	1218.36482	-726.76043	-1234.89704	1241.23332	-654.83429	-1151.87771	1712.90159	-609.69209	-1102.50199	1655.30964	-452.70670	-1078.07223	1655.71121	-771.67011	-1040.58885	1621.65662	-584.94285	-1038.46730	1620.93164	-628.65342	-1104.80466	1412.03334	-379.17151	-1160.79982	1311.38418	-429.85045	-1133.26370	1327.65557	-363.48283	-1064.78563	1223.99431	-362.41448	-1022.26676	1112.15676	-373.48777	-1059.99751	1098.23406	-356.88115	-1043.97502	1520.33876	-812.18704	-1119.64589	1311.60234	-778.10736	-1098.19070	1318.93465	-836.77948	-1036.92551	1225.52932	-844.87678	-1012.15838	1101.96042	-827.03150	-1043.29871	1091.41657	-846.64290	-1118.62901	1153.84002	-496.75989	-1112.28512	1148.74374	-696.88665	-1113.69822	1150.92682	-502.48915	-1115.04512	1139.41609	-670.18682	
3	0.02000000	-1111.53029	770.30171	-459.17748	-1108.74334	696.60552	-435.50395	-1184.90608	399.62853	-463.84639	-1254.12376	360.56428	-499.79918	-1083.03774	358.68752	-438.11008	-1041.35567	382.12913	-493.87176	-1129.13559	768.66030	-730.69804	-1106.62831	701.21241	-731.04454	-1176.37046	400.26597	-719.63138	-1246.62001	362.82298	-673.64563	-1082.60497	354.53781	-741.86294	-1036.00743	381.04069	-686.42832	-1129.33882	586.79334	-429.20458	-1182.19612	708.60593	-442.99168	-1210.48527	596.10420	-438.90980	-1190.88371	718.36912	-759.56133	-1199.44051	595.15923	-760.19207	-1037.68107	1080.11058	-466.01448	-1032.15235	967.54015	-461.35820	-1077.10955	943.58329	-417.74971	-1129.58568	1078.77478	-399.38536	-1131.55478	962.06604	-411.81127	-1050.31028	1048.85878	-755.50424	-1054.12625	910.26155	-742.76270	-1163.75573	1047.13679	-781.35699	-1160.76442	908.63904	-762.88347	-1050.04443	1227.83131	-472.48482	-1233.04776	1249.19891	-545.84164	-1044.41797	1218.40971	-727.18522	-1234.37819	1241.85984	-654.34164	-1148.34633	1712.99619	-609.12401	-1098.73346	1655.27195	-452.15907	-1075.11707	1655.87797	-771.07668	-1037.34411	1621.27001	-584.47931	-1035.26577	1620.65737	-628.33726	-1103.07514	1412.09184	-378.28951	-1159.88464	1311.76013	-429.07952	-1132.29454	1327.86025	-362.77915	-1064.18281	1223.91588	-361.79433	-1021.99551	1112.05611	-372.86297	-1059.91821	1098.13361	-356.43781	-1042.18928	1520.30783	-812.15185	-1119.86825	1312.11961	-778.22170	-1098.59534	1319.66390	-837.66024	-1037.96450	1225.73906	-845.59477	-1014.01433	1101.99067	-828.04212	-1045.22711	1091.89291	-847.76989	-1117.85384	1153.72081	-496.92271	-1112.26928	1148.99419	-697.08143	-1112.99772	1150.88783	-502.49833	-1115.05633	1139.53404	-670.36026	
4	0.03000000	-1110.74602	770.03965	-459.43590	-1108.11008	696.49246	-435.52391	-1184.97302	399.56734	-463.77925	-1254.18602	360.49176	-499.77075	-1083.08678	358.81035	-438.11157	-1041.49366	382.40788	-493.94630	-1127.11473	768.47487	-730.59456	-1104.72446	700.69854	-730.91265	-1176.44127	400.26124	-719.40076	-1246.63163	362.84066	-673.64362	-1082.57642	354.74987	-741.72475	-1036.11037	381.20836	-686.25752	-1128.82815	586.19307	-429.35820	-1181.41106	708.65785	-442.77003	-1210.06268	596.02581	-438.72043	-1188.93677	718.40556	-759.11695	-1198.47374	595.37680	-759.63662	-1036.97066	1079.75772	-466.26082	-1031.42924	967.15920	-461.73963	-1076.29719	943.29359	-417.97192	-1128.42317	1078.56608	-399.43980	-1130.59768	961.79725	-411.89675	-1049.69803	1049.14098	-755.90189	-1052.98628	910.42305	-742.87506	-1163.44008	1047.25848	-781.91146	-1159.55672	908.40070	-762.98171	-1048.81820	1227.33556	-472.63390	-1232.04119	1249.67928	-545.33991	-1044.28228	1218.37974	-727.49400	-1233.83907	1242.49341	-653.91624	-1144.29465	1712.96449	-608.47833	-1094.71690	1655.10664	-451.61996	-1071.89049	1656.08313	-770.59696	-1034.03612	1620.75086	-584.26478	-1031.81615	1620.28964	-628.00335	-1101.14266	1412.13541	-377.38497	-1158.88107	1311.93060	-428.34999	-1131.13364	1328.02726	-362.03625	-1063.40327	1223.76421	-361.11986	-1021.60435	1111.90284	-372.38166	-1059.68517	1098.04069	-356.07299	-1040.24634	1520.24763	-812.10875	-1120.40765	1312.98948	-779.00717	-1099.11774	1320.42071	-838.67762	-1039.06498	1226.00411	-846.31059	-1015.74952	1102.09767	-828.94690	-1046.89989	1091.83925	-848.31268	-1117.08940	1153.58103	-497.03867	-1112.28908	1149.19566	-697.22557	-1112.28169	1150.77288	-502.52369	-1115.06253	1139.65799	-670.47032	
